<mxfile host="app.diagrams.net" modified="2024-11-26T21:05:11.036Z" agent="Mozilla/5.0 (Windows NT 10.0; Win64; x64) AppleWebKit/537.36 (KHTML, like Gecko) Chrome/131.0.0.0 Safari/537.36" version="24.3.1" etag="YLdK2CAI3ZN1sdRIfiDM" type="github">
  <diagram name="페이지-1" id="sxDw6i_4Sg1NNihgmk19">
    <mxGraphModel>
      <root>
        <mxCell id="0" />
        <mxCell id="1" parent="0" />
      </root>
    </mxGraphModel>
  </diagram>
</mxfile>
